<svg width="28" height="16" viewBox="0 0 28 16" version="1.1" xmlns="http://www.w3.org/2000/svg" xmlns:xlink="http://www.w3.org/1999/xlink" xmlns:figma="http://www.figma.com/figma/ns">
<title>next</title>
<desc>Created using Figma</desc>
<g id="Canvas" transform="matrix(2 0 0 2 22938 8786)" figma:type="canvas">
<g id="next" figma:type="vector">
<use xlink:href="#path0_stroke" transform="matrix(6.12323e-17 1 -1 6.12323e-17 -11456 -4391.76)" fill="#979797"/>
</g>
</g>
<defs>
<path id="path0_stroke" d="M 0.353553 -0.353553C 0.158291 -0.548816 -0.158291 -0.548816 -0.353553 -0.353553C -0.548816 -0.158291 -0.548816 0.158291 -0.353553 0.353553L 0.353553 -0.353553ZM 6 6L 6.35355 6.35355L 6.70711 6L 6.35355 5.64645L 6 6ZM -0.353553 11.6464C -0.548816 11.8417 -0.548816 12.1583 -0.353553 12.3536C -0.158291 12.5488 0.158291 12.5488 0.353553 12.3536L -0.353553 11.6464ZM -0.353553 0.353553L 5.64645 6.35355L 6.35355 5.64645L 0.353553 -0.353553L -0.353553 0.353553ZM 5.64645 5.64645L -0.353553 11.6464L 0.353553 12.3536L 6.35355 6.35355L 5.64645 5.64645Z"/>
</defs>
</svg>
