<svg width="26" height="34" viewBox="0 0 26 34" version="1.1" xmlns="http://www.w3.org/2000/svg" xmlns:xlink="http://www.w3.org/1999/xlink" xmlns:figma="http://www.figma.com/figma/ns">
<title>layers</title>
<desc>Created using Figma</desc>
<g id="Canvas" transform="matrix(2 0 0 2 23410 8884)" figma:type="canvas">
<g id="layers" figma:type="frame">
<g id="Stroke 1" figma:type="vector">
<use xlink:href="#path0_stroke" transform="translate(-11704 -4440.51)" fill="#979797"/>
</g>
<g id="Stroke 2" figma:type="vector">
<use xlink:href="#path1_stroke" transform="translate(-11704 -4433.55)" fill="#979797"/>
</g>
<g id="Stroke 3" figma:type="vector">
<use xlink:href="#path2_stroke" transform="translate(-11704 -4431.56)" fill="#979797"/>
</g>
<g id="Stroke 4" figma:type="vector">
<use xlink:href="#path3_stroke" transform="translate(-11701.8 -4438.58)" fill="#979797"/>
</g>
</g>
</g>
<defs>
<path id="path0_stroke" d="M 6.90342 0.358973L 6.53363 0.695503L 6.53364 0.695513L 6.90342 0.358973ZM 5.35137 0.285908L 5.01484 -0.0838861L 5.01484 -0.0838784L 5.35137 0.285908ZM 0.358968 4.82944L 0.0224296 4.45965L 0.0224238 4.45966L 0.358968 4.82944ZM 0.285935 6.38152L 0.655721 6.04498L 0.655716 6.04498L 0.285935 6.38152ZM 4.16029 10.6386L 3.7905 10.9752L 3.7905 10.9752L 4.16029 10.6386ZM 5.71233 10.7117L 5.37579 10.3419L 5.37579 10.3419L 5.71233 10.7117ZM 10.7047 6.16816L 11.0413 6.53794L 11.0413 6.53794L 10.7047 6.16816ZM 10.7778 4.61608L 11.1476 4.27955L 11.1476 4.27954L 10.7778 4.61608ZM 7.27322 0.0224428C 6.67922 -0.630265 5.66752 -0.677849 5.01484 -0.0838861L 5.6879 0.655702C 5.93215 0.433428 6.31139 0.451293 6.53363 0.695503L 7.27322 0.0224428ZM 5.01484 -0.0838784L 0.0224296 4.45965L 0.695506 5.19923L 5.68791 0.655694L 5.01484 -0.0838784ZM 0.0224238 4.45966C -0.63026 5.05368 -0.677864 6.06538 -0.0838459 6.71806L 0.655716 6.04498C 0.433434 5.80074 0.451279 5.4215 0.695512 5.19922L 0.0224238 4.45966ZM -0.083851 6.71806L 3.7905 10.9752L 4.53007 10.3021L 0.655721 6.04498L -0.083851 6.71806ZM 3.7905 10.9752C 4.38451 11.6278 5.39617 11.6755 6.04888 11.0815L 5.37579 10.3419C 5.13157 10.5642 4.75237 10.5463 4.53007 10.3021L 3.7905 10.9752ZM 6.04887 11.0815L 11.0413 6.53794L 10.3682 5.79837L 5.37579 10.3419L 6.04887 11.0815ZM 11.0413 6.53794C 11.694 5.94393 11.7416 4.93227 11.1476 4.27955L 10.408 4.95261C 10.6303 5.19687 10.6124 5.57608 10.3682 5.79838L 11.0413 6.53794ZM 11.1476 4.27954L 7.27321 0.0224325L 6.53364 0.695513L 10.408 4.95262L 11.1476 4.27954Z"/>
<path id="path1_stroke" d="M 0.681899 0.57498C 0.886137 0.389127 0.901041 0.0728952 0.715188 -0.131343C 0.529335 -0.335581 0.213103 -0.350485 0.0088652 -0.164631L 0.681899 0.57498ZM 0.275122 1.69748L 0.644907 1.36094L 0.644901 1.36093L 0.275122 1.69748ZM 4.00038 5.79073L 4.37017 5.4542L 4.37016 5.45419L 4.00038 5.79073ZM 5.49268 5.861L 5.15614 5.49121L 5.15613 5.49122L 5.49268 5.861ZM 10.2929 1.49233L 10.6295 1.86212L 10.6295 1.86211L 10.2929 1.49233ZM 10.733 -0.336532C 10.5471 -0.540763 10.2309 -0.555654 10.0266 -0.369792C 9.82241 -0.183931 9.80752 0.132302 9.99338 0.336532L 10.733 -0.336532ZM 0.0088652 -0.164631C -0.626899 0.413904 -0.673225 1.39832 -0.0946582 2.03402L 0.644901 1.36093C 0.438077 1.13368 0.454651 0.781773 0.681899 0.57498L 0.0088652 -0.164631ZM -0.0946635 2.03402L 3.63059 6.12727L 4.37016 5.45419L 0.644907 1.36094L -0.0946635 2.03402ZM 3.63059 6.12727C 4.20914 6.763 5.19352 6.80935 5.82923 6.23077L 5.15613 5.49122C 4.92889 5.69803 4.57701 5.68148 4.37017 5.4542L 3.63059 6.12727ZM 5.82922 6.23078L 10.6295 1.86212L 9.95641 1.12255L 5.15614 5.49121L 5.82922 6.23078ZM 10.6295 1.86211C 11.2652 1.28355 11.3115 0.299195 10.733 -0.336532L 9.99338 0.336532C 10.2002 0.563818 10.1837 0.915726 9.9564 1.12255L 10.6295 1.86211Z"/>
<path id="path2_stroke" d="M 0.676535 0.57178C 0.880765 0.385918 0.895656 0.0696858 0.709794 -0.134545C 0.523933 -0.338775 0.207701 -0.353666 0.0034702 -0.167804L 0.676535 0.57178ZM 0.270857 1.67109L 0.640644 1.33455L 0.640635 1.33454L 0.270857 1.67109ZM 3.93822 5.70078L 3.56843 6.03732L 3.56844 6.03733L 3.93822 5.70078ZM 5.40735 5.76993L 5.07081 5.40014L 5.07081 5.40015L 5.40735 5.76993ZM 10.133 1.46914L 9.79649 1.09934L 9.79648 1.09935L 10.133 1.46914ZM 10.5719 -0.336548C 10.3861 -0.54077 10.0698 -0.555648 9.86562 -0.369778C 9.6614 -0.183908 9.64652 0.132325 9.83239 0.336548L 10.5719 -0.336548ZM 0.0034702 -0.167804C -0.625545 0.404637 -0.67141 1.37862 -0.0989209 2.00764L 0.640635 1.33454C 0.439904 1.11399 0.455984 0.772494 0.676535 0.57178L 0.0034702 -0.167804ZM -0.09893 2.00763L 3.56843 6.03732L 4.308 5.36424L 0.640644 1.33455L -0.09893 2.00763ZM 3.56844 6.03733C 4.1409 6.66632 5.11488 6.7122 5.7439 6.1397L 5.07081 5.40015C 4.85026 5.60087 4.50875 5.58481 4.30799 5.36423L 3.56844 6.03733ZM 5.74389 6.13971L 10.4696 1.83892L 9.79648 1.09935L 5.07081 5.40014L 5.74389 6.13971ZM 10.4696 1.83893C 11.0986 1.26649 11.1444 0.292467 10.5719 -0.336548L 9.83239 0.336548C 10.0331 0.557099 10.017 0.898631 9.79649 1.09934L 10.4696 1.83893Z"/>
<path id="path3_stroke" d="M -0.337862 3.1365C -0.541422 3.32309 -0.555173 3.63938 -0.368577 3.84294C -0.181981 4.0465 0.134303 4.06025 0.337862 3.87365L -0.337862 3.1365ZM 4.16158 0.368577C 4.36514 0.181981 4.37889 -0.134303 4.1923 -0.337862C 4.0057 -0.541422 3.68942 -0.555173 3.48586 -0.368577L 4.16158 0.368577ZM 0.337862 3.87365L 4.16158 0.368577L 3.48586 -0.368577L -0.337862 3.1365L 0.337862 3.87365Z"/>
</defs>
</svg>
